Coordinates
nRows=119
nColumns=2
inDegrees=yes
endheader
time	ankle_angle_r	
2.71976	  9.515739	
2.79133	  9.504770	
2.8629	  9.456564	
2.93448	  9.462197	
3.00605	  9.482415	
3.07762	  9.451350	
3.14919	  9.444081	
3.22077	  9.457142	
3.29234	  9.432433	
3.36391	  9.424625	
3.43548	  9.432561	
3.50706	  9.449991	
3.57863	  9.495633	
3.6502	  9.462560	
3.72177	  9.401839	
3.79335	  9.422421	
3.86492	  9.440479	
3.93649	  9.433771	
4.00806	  9.452597	
4.07964	  9.479388	
4.15121	  9.445798	
4.22278	  9.411314	
4.29435	  9.462734	
4.36593	  9.490350	
4.4375	  9.480413	
4.50907	  9.504777	
4.58065	  9.500535	
4.65222	  9.450655	
4.72379	  9.424937	
4.79536	  9.451593	
4.86694	  9.474631	
4.93851	  9.447193	
5.01008	  9.440900	
5.08165	  9.482763	
5.15323	  9.486210	
5.2248	  9.464049	
5.29637	  9.456672	
5.36794	  9.448402	
5.43952	  9.457230	
5.51109	  9.486594	
5.58266	  9.528394	
5.65423	  9.562148	
5.72581	  9.568934	
5.79738	  9.536656	
5.86895	  9.505548	
5.94052	  9.541331	
6.0121	  9.543374	
6.08367	  9.487538	
6.15524	  9.500294	
6.22681	  9.522404	
6.29839	  9.474893	
6.36996	  9.435625	
6.44153	  9.420106	
6.5131	  9.388929	
6.58468	  9.369035	
6.65625	  9.362492	
6.72782	  9.366148	
6.7994	  9.374819	
6.87097	  9.355907	
6.94254	  9.362966	
7.01411	  9.398762	
7.08569	  9.371801	
7.15726	  9.346959	
7.22883	  9.419749	
7.3004	  9.457414	
7.37198	  9.438742	
7.44355	  9.479158	
7.51512	  9.487744	
7.58669	  9.473395	
7.65827	  9.466952	
7.72984	  9.453016	
7.80141	  9.522814	
7.87298	  9.506222	
7.94456	  9.393768	
8.01613	  9.438877	
8.0877	  9.502958	
8.15927	  9.441864	
8.23085	  9.431708	
8.30242	  9.509052	
8.37399	  9.507744	
8.44556	  9.448103	
8.51714	  9.429049	
8.58871	  9.423141	
8.66028	  9.427723	
8.73185	  9.412314	
8.80343	  9.378107	
8.875	  9.369083	
8.94657	  9.359577	
9.01815	  9.350360	
9.08972	  9.361130	
9.16129	  9.384566	
9.23286	  9.372609	
9.30444	  9.335430	
9.37601	  9.354820	
9.44758	  9.399210	
9.51915	  9.397144	
9.59073	  9.403034	
9.6623	  9.460254	
9.73387	  9.499220	
9.80544	  9.489950	
9.87702	  9.474742	
9.94859	  9.483808	
10.0202	  9.464018	
10.0917	  9.401776	
10.1633	  9.398838	
10.2349	  9.404910	
10.3065	  9.319949	
10.378	  9.227034	
10.4496	  9.214191	
10.5212	  9.242566	
10.5927	  9.273000	
10.6643	  9.329645	
10.7359	  9.373279	
10.8075	  9.366439	
10.879	  9.348301	
10.9506	  9.360274	
11.0222	  9.396135	
11.0937	  9.395256	
11.1653	  9.350597	
